<svg id="clickbank" xmlns="http://www.w3.org/2000/svg" width="138" height="41" viewBox="0 0 138 41">
    <g fill="none" fill-rule="evenodd">
        <path fill="#929DC5" d="M4.99 0h19.256c1.268.127 2.488.684 3.386 1.585a5.43 5.43 0 0 1 1.546 3.07c.084.595.057 1.197.06 1.796 0 2.67.003 5.338-.001 8.007a2.61 2.61 0 0 1-1.166 2.192c-.903.61-2.191.565-3.049-.109a2.54 2.54 0 0 1-.942-1.46c-.119-.501-.067-1.02-.127-1.528-.226-2.329-1.39-4.547-3.172-6.076A9.377 9.377 0 0 0 14.58 5.18a9.371 9.371 0 0 0-5.47 1.768c-1.875 1.339-3.222 3.385-3.688 5.629a9.23 9.23 0 0 0 .257 4.789 9.383 9.383 0 0 0 4.218 5.177 9.393 9.393 0 0 0 3.844 1.224c.487.05.984.003 1.464.115.67.145 1.272.575 1.63 1.154.429.683.51 1.568.21 2.317-.373.99-1.409 1.667-2.471 1.645-2.996.004-5.99 0-8.986.001-.83 0-1.661-.15-2.413-.504C1.414 27.707.171 25.946 0 24.042V4.95C.123 3.712.658 2.51 1.549 1.63 2.449.694 3.699.125 4.989 0"/>
        <path fill="#929DC5" d="M13.387 8.158a6.137 6.137 0 0 1 3.622.57 6.062 6.062 0 0 1 2.974 3.223 6.066 6.066 0 0 1 .09 4.176 6.065 6.065 0 0 1-2.62 3.228 6.151 6.151 0 0 1-4.184.794 6.112 6.112 0 0 1-3.814-2.25 6.013 6.013 0 0 1-1.273-3.237A6.027 6.027 0 0 1 9.45 10.43a6.113 6.113 0 0 1 3.937-2.272M21.402 19.583a2.768 2.768 0 0 1 2.318.79c.889.887 1.017 2.397.284 3.417-.67.998-2.055 1.427-3.186.998a2.707 2.707 0 0 1-1.726-1.979c-.124-.654-.029-1.362.323-1.936a2.72 2.72 0 0 1 1.987-1.29M25.508 24.283c.552-.126 1.164-.023 1.62.315.6.422.912 1.206.759 1.917a1.906 1.906 0 0 1-.903 1.278c-.64.38-1.505.36-2.117-.066a1.914 1.914 0 0 1 .64-3.444"/>
        <path fill="#9CB9E2" d="M150.977 6.424c-.673.113-1.186.761-1.157 1.429-.003.502.3.982.743 1.225.332.187.749.216 1.11.1.593-.192 1.01-.8.972-1.413-.01-.516-.338-1-.805-1.229a1.41 1.41 0 0 0-.863-.112zm-.047-.174c.429-.077.895.007 1.248.266.255.193.476.446.584.75.17.473.12 1.035-.176 1.452a1.69 1.69 0 0 1-.737.595c-.297.12-.631.135-.946.082-.74-.136-1.33-.839-1.297-1.585-.015-.744.581-1.44 1.324-1.56z"/>
        <path fill="#929DC5" d="M37.309 8.082c.964-.422 2.022-.538 3.059-.614 1.304-.071 2.626-.1 3.911.162.74.157 1.533.467 1.924 1.171.567 1.025.59 2.245.595 3.392-.873.003-1.747.001-2.62 0 .003-.627.032-1.301-.282-1.863-.213-.373-.66-.465-1.042-.537a11.213 11.213 0 0 0-2.24-.076c-.618.042-1.262.08-1.83.359-.316.146-.459.493-.532.817-.19.8-.204 1.63-.23 2.45-.003 1.404-.006 2.812.166 4.207.07.4.102.845.37 1.166.38.357.918.447 1.41.518.93.106 1.875.102 2.805-.018.452-.079.985-.174 1.241-.612.367-.642.309-1.419.291-2.133.869.008 1.737.008 2.606 0 .028 1.022.006 2.064-.292 3.049-.159.516-.43 1.025-.89 1.324-.493.314-1.071.444-1.636.547-1.15.192-2.32.203-3.48.184-1-.04-2.013-.119-2.97-.435-.589-.205-1.2-.532-1.484-1.126-.303-.625-.429-1.317-.532-1.999-.2-1.412-.239-2.84-.266-4.263-.005-1.4-.008-2.854.521-4.17.26-.666.769-1.23 1.427-1.5M68.866 7.966c.848-.307 1.75-.422 2.644-.49 1.125-.071 2.26-.096 3.381.042.919.13 1.984.347 2.53 1.194.638 1.034.622 2.305.661 3.482h-2.621c-.003-.605.017-1.244-.254-1.8-.138-.3-.447-.457-.75-.531-.643-.158-1.313-.166-1.972-.17-.773.03-1.572.038-2.304.322a.994.994 0 0 0-.604.687c-.218.747-.241 1.534-.275 2.308-.005 1.396-.024 2.792.114 4.184.053.435.096.881.264 1.29.17.38.589.532.956.637.813.203 1.66.194 2.492.176.59-.039 1.204-.06 1.75-.314.424-.198.594-.691.662-1.129.084-.457.033-.921.047-1.383.87.01 1.74.003 2.611.003.009.952-.007 1.918-.246 2.844-.153.557-.396 1.135-.878 1.478-.499.344-1.099.486-1.684.592-1.173.195-2.364.206-3.549.187-1.022-.047-2.062-.125-3.034-.477-.546-.2-1.1-.521-1.369-1.07-.324-.653-.445-1.387-.552-2.105-.213-1.626-.255-3.27-.244-4.909-.014-.846.048-1.694.227-2.52.14-.628.371-1.252.785-1.747.316-.378.76-.611 1.212-.78M49.642 8.094c.855.002 1.708.006 2.564-.001.011 3.725.003 7.453.002 11.179 2.09.014 4.182 0 6.272.007v2.302h-8.84c.002-4.495-.002-8.991.002-13.487M61.201 8.093c.905.001 1.812-.002 2.718.003.001 4.493-.001 8.99.001 13.485H61.2c.002-4.496 0-8.992.001-13.488M80.93 8.093c.872.013 1.744.004 2.619.006.001 1.827-.002 3.654.001 5.48h1.21c1.52-1.826 3.036-3.653 4.553-5.477 1.09-.003 2.18-.005 3.267 0-1.838 2.187-3.697 4.359-5.533 6.55 2.042 2.305 4.076 4.617 6.113 6.93-1.124 0-2.246 0-3.37-.003-1.673-1.945-3.343-3.891-5.017-5.835h-1.224v5.837H80.92c.006-4.497-.011-8.992.01-13.488M122.41 8.094c.822.009 1.647-.01 2.471.007.26.3.428.682.656 1.012 1.823 2.97 3.665 5.933 5.477 8.911.484.766.93 1.559 1.429 2.314-.049-1.995-.012-3.99-.023-5.986-.006-2.08.011-4.159-.009-6.24.514-.036 1.03-.008 1.546-.015.003 4.494-.003 8.987.003 13.482-.841.006-1.68 0-2.521.002-1.78-2.868-3.549-5.74-5.326-8.607-.741-1.176-1.435-2.381-2.188-3.548.023 4.052.003 8.103.012 12.155h-1.535c.003-4.495-.011-8.992.009-13.487M137.36 8.102c.527-.006 1.053.006 1.583-.009.03 1.954.011 3.908.005 5.863.456.04.917.008 1.373.02 1.908-1.956 3.83-3.901 5.727-5.868.695-.015 1.393-.006 2.085-.005-2.106 2.185-4.265 4.323-6.383 6.5.532.561 1.109 1.084 1.665 1.625 1.831 1.787 3.677 3.558 5.505 5.349-.74.006-1.479.006-2.219 0-2.117-2.105-4.256-4.19-6.383-6.284-.453-.006-.908-.003-1.36-.003 0 2.093-.01 4.186.005 6.278-.535.023-1.07.009-1.603.009.003-4.493 0-8.984 0-13.475M110.592 17.543c1.978.007 3.957-.003 5.935.004-.976-2.717-1.99-5.425-2.982-8.139-1.001 2.706-1.977 5.42-2.953 8.135zm1.823-9.438c.725-.021 1.451-.006 2.18-.01 1.7 4.494 3.391 8.989 5.085 13.483-.543 0-1.082-.003-1.628.003-.356-.949-.712-1.901-1.054-2.856-2.285-.012-4.572-.003-6.858-.006-.353.954-.694 1.909-1.05 2.86-.55-.004-1.099 0-1.65 0 1.654-4.495 3.329-8.98 4.975-13.474zM97.505 15.32c-.034 1.648-.007 3.296-.016 4.948 1.622-.003 3.244.003 4.865-.003.726-.033 1.5-.024 2.16-.359.626-.386.66-1.18.702-1.82-.01-.683-.002-1.405-.313-2.037-.13-.307-.463-.45-.779-.521-.715-.165-1.454-.174-2.188-.2-1.476-.009-2.955.006-4.431-.007zm-.013-5.91c-.007 1.49 0 2.98-.003 4.472-.054.187.184.12.29.135.887-.006 1.774-.002 2.661-.003 1.105-.017 2.238.08 3.311-.224.38-.1.685-.381.81-.737.253-.704.25-1.47.172-2.205-.06-.459-.22-1.008-.724-1.19-.764-.276-1.6-.243-2.403-.249h-4.114zm-1.609-1.314c1.548-.003 3.095 0 4.64-.001 1.125.01 2.256-.045 3.372.109.535.085 1.096.198 1.542.51.506.382.68 1.013.785 1.594.107.775.165 1.573-.002 2.346-.132.55-.417 1.087-.886 1.44-.24.191-.53.305-.804.436.649.141 1.27.477 1.646 1.015.502.69.6 1.566.582 2.385-.036.87-.138 1.797-.667 2.535-.445.62-1.232.906-1.979 1.022-.884.149-1.78.072-2.67.092-1.855-.003-3.707.003-5.562-.003.006-4.494 0-8.985.003-13.48z"/>
    </g>
</svg>
