<svg id="kigsmaster" xmlns="http://www.w3.org/2000/svg" width="138" height="41" viewBox="0 0 138 41">
    <g fill="#929DC5" fill-rule="evenodd">
        <path d="M68.312 9.363l4.72-6.905c.891-1.3 2.043-1.952 3.455-1.952 1.153 0 2.15.414 2.992 1.239.843.826 1.264 1.814 1.264 2.964 0 .851-.223 1.602-.67 2.253l-4.255 6.247 5.203 6.66c.52.664.78 1.44.78 2.327a4.204 4.204 0 0 1-1.225 3.03c-.819.845-1.81 1.267-2.974 1.267-1.276 0-2.248-.419-2.917-1.257l-6.373-8.03v4.428c0 1.263-.217 2.245-.65 2.946-.794 1.275-1.946 1.913-3.457 1.913-1.375 0-2.44-.469-3.196-1.407-.706-.863-1.06-2.008-1.06-3.434V5.234c0-1.35.36-2.463 1.079-3.339C61.783.97 62.824.506 64.149.506c1.264 0 2.317.464 3.16 1.39.47.513.767 1.031.891 1.557.074.325.112.931.112 1.82v4.09zM46.85 0c3.084-.012 5.92 1.032 8.51 3.133 2.031 1.651 3.047 3.36 3.047 5.123 0 1.5-.62 2.664-1.858 3.49a4.039 4.039 0 0 1-2.304.712 4.145 4.145 0 0 1-1.951-.487c-.26-.138-.905-.77-1.933-1.895-.954-1.051-2.15-1.577-3.586-1.577-1.387 0-2.549.485-3.484 1.455-.935.97-1.403 2.154-1.403 3.555 0 1.39.468 2.568 1.403 3.538.935.97 2.09 1.453 3.465 1.453 1.14 0 2.2-.387 3.178-1.163.607-.588 1.208-1.175 1.803-1.764.643-.563 1.46-.844 2.452-.844 1.14 0 2.128.404 2.964 1.21.836.806 1.254 1.786 1.254 2.937 0 1.563-.91 3.145-2.732 4.746C53.124 25.874 50.175 27 46.83 27c-2.068 0-4.02-.445-5.852-1.333a13.222 13.222 0 0 1-5.528-4.962c-1.37-2.182-2.053-4.569-2.053-7.158 0-3.877 1.424-7.18 4.273-9.907C40.185 1.238 43.245.025 46.85 0zM31.802 5.742v15.892c0 1.376-.353 2.508-1.059 3.396-.756.976-1.803 1.463-3.14 1.463-1.227 0-2.261-.456-3.103-1.369-.707-.763-1.06-1.927-1.06-3.49V5.742c0-1.776.353-3.065 1.06-3.866.805-.913 1.84-1.37 3.103-1.37 1.263 0 2.297.451 3.103 1.352.73.825 1.096 2.12 1.096 3.884zm-23.44 3.62l4.72-6.904c.891-1.3 2.043-1.952 3.455-1.952 1.153 0 2.15.414 2.992 1.239.842.826 1.264 1.814 1.264 2.964 0 .851-.224 1.602-.67 2.253l-4.254 6.247 5.202 6.66c.52.664.78 1.44.78 2.327a4.204 4.204 0 0 1-1.226 3.03c-.817.845-1.809 1.267-2.973 1.267-1.276 0-2.248-.419-2.917-1.257l-6.374-8.03v4.428c0 1.263-.216 2.245-.65 2.946-.793 1.275-1.945 1.913-3.456 1.913-1.375 0-2.44-.469-3.196-1.407C.353 24.223 0 23.078 0 21.652V5.234c0-1.35.359-2.463 1.077-3.339C1.833.97 2.873.506 4.2.506c1.264 0 2.317.464 3.16 1.39.47.513.767 1.031.891 1.557.074.325.111.931.111 1.82v4.09zM224.235 16.436l1.954 3.19c.54.888.811 1.801.811 2.739 0 1.19-.403 2.174-1.208 2.955-.804.782-1.791 1.173-2.959 1.173-1.5 0-2.636-.65-3.41-1.951l-3.466-5.78v3.472c0 1.189-.384 2.195-1.152 3.02-.768.826-1.737 1.24-2.904 1.24-1.426 0-2.507-.52-3.245-1.558-.663-.913-.995-2.114-.995-3.603V5.554c0-3.24 1.715-4.86 5.143-4.86h5.273c1.733 0 3.343.51 4.83 1.53s2.575 2.342 3.263 3.968c.517 1.226.775 2.458.775 3.696 0 2.314-.903 4.497-2.71 6.548zm-26.692 1.952h3.771c1.559 0 2.718.325 3.478.975.895.776 1.343 1.777 1.343 3.002 0 1.251-.449 2.265-1.346 3.04-.7.6-1.85.9-3.447.9h-6.471c-1.524 0-2.569-.118-3.134-.356-1.106-.463-1.838-1.22-2.194-2.27-.222-.676-.332-1.783-.332-3.322V6.437c0-1.165.037-1.946.11-2.347.136-.812.462-1.5.978-2.063.59-.639 1.34-1.045 2.25-1.22.43-.075 1.302-.113 2.617-.113h4.96c1.35 0 2.138.013 2.359.038.885.087 1.61.35 2.175.787 1.008.777 1.512 1.79 1.512 3.04 0 1.35-.442 2.383-1.325 3.097-.785.637-1.857.957-3.22.957h-4.084v1.744h3.256c.954 0 1.746.257 2.37.77.662.55.993 1.307.993 2.27 0 2.039-1.22 3.058-3.658 3.058h-2.96v1.933zm-24.591-9.832h-2.195c-1.217 0-2.224-.338-3.023-1.013-.848-.725-1.272-1.695-1.272-2.908 0-.726.2-1.423.599-2.092.4-.67.916-1.145 1.549-1.427.632-.281 2.134-.422 4.507-.422h8.37c2.052 0 3.38.125 3.982.376.663.275 1.201.748 1.613 1.416.411.67.617 1.373.617 2.111 0 1.163-.454 2.177-1.364 3.04-.651.613-1.714.92-3.189.92h-1.9v12.758c0 1.388-.233 2.464-.7 3.227-.786 1.276-1.923 1.914-3.41 1.914s-2.63-.582-3.429-1.745c-.504-.726-.755-1.826-.755-3.302V8.556zm-9.86 7.88l1.955 3.19c.54.888.81 1.801.81 2.739 0 1.19-.402 2.174-1.207 2.955-.805.782-1.79 1.173-2.958 1.173-1.5 0-2.636-.65-3.411-1.951l-3.467-5.78v3.472c0 1.189-.383 2.195-1.151 3.02-.769.826-1.736 1.24-2.904 1.24-1.426 0-2.507-.52-3.244-1.558-.664-.913-.996-2.114-.996-3.603V5.554c0-3.24 1.715-4.86 5.144-4.86h5.272c1.733 0 3.343.51 4.83 1.53s2.575 2.342 3.264 3.968c.515 1.226.773 2.458.773 3.696 0 2.314-.903 4.497-2.71 6.548zm-34.464 6.548c-.394.95-.8 1.658-1.217 2.12-.836.926-1.85 1.39-3.042 1.39-1.463 0-2.6-.601-3.41-1.802a4.205 4.205 0 0 1-.719-2.402c0-.737.172-1.483.516-2.232l7.872-17.056c.762-1.663 2.034-2.496 3.816-2.496 1.807 0 3.103.857 3.89 2.572l7.946 17.185c.32.69.48 1.37.48 2.046 0 1-.321 1.889-.96 2.664-.836 1.014-1.905 1.52-3.207 1.52-1.07 0-1.96-.338-2.674-1.013-.529-.5-1.057-1.332-1.585-2.496h-7.706zM108.459 8.556h-2.194c-1.216 0-2.225-.338-3.023-1.013-.848-.725-1.273-1.695-1.273-2.908 0-.726.2-1.423.6-2.092.4-.67.916-1.145 1.549-1.427.633-.281 2.135-.422 4.507-.422h8.37c2.052 0 3.38.125 3.982.376.664.275 1.201.748 1.613 1.416.412.67.618 1.373.618 2.111 0 1.163-.455 2.177-1.365 3.04-.65.613-1.714.92-3.19.92h-1.898v12.758c0 1.388-.233 2.464-.7 3.227-.787 1.276-1.924 1.914-3.411 1.914s-2.63-.582-3.429-1.745c-.504-.726-.756-1.826-.756-3.302V8.556zm-22.196 8.068c.922 0 1.905.413 2.95 1.238 1.302 1.04 2.193 1.557 2.673 1.557.713 0 1.069-.374 1.069-1.125 0-.413-.21-.763-.627-1.051-.221-.15-1.463-.63-3.724-1.445-3.7-1.325-5.549-3.777-5.549-7.355 0-2.701.977-4.834 2.931-6.397C87.694.682 89.808 0 92.328 0c2.175 0 4.068.529 5.678 1.585 1.61 1.057 2.415 2.418 2.415 4.082 0 1-.304 1.835-.912 2.504-.609.67-1.399 1.004-2.37 1.004-1.02 0-2.15-.494-3.392-1.482-.773-.613-1.357-.92-1.75-.92-.677 0-1.015.338-1.015 1.013 0 .639.836 1.22 2.508 1.745 2.31.739 4.098 1.64 5.364 2.702 1.684 1.426 2.526 3.428 2.526 6.005 0 2.802-.946 4.99-2.84 6.567C96.784 26.268 94.498 27 91.684 27c-2.815 0-5.144-.762-6.988-2.29-1.474-1.212-2.212-2.632-2.212-4.259 0-1.088.363-1.994 1.088-2.72.725-.725 1.622-1.094 2.692-1.107z"/>
    </g>
</svg>
