<svg id="N" xmlns="http://www.w3.org/2000/svg" width="138" height="41" viewBox="0 0 138 41">
    <g fill="none" fill-rule="evenodd">
        <path fill="#97A3D1" d="M39.684.07c-.3-.147-.546.001-.546.33v40.323l18.098 8.829c.902.44 1.64-.005 1.64-.989V9.747a.51.51 0 0 0-.29-.457L39.685.07"/>
        <path fill="#929DC5" d="M19.401 31.108L38.82.324a.691.691 0 0 1 .866-.241l18.758 9.15a.429.429 0 0 1 .18.615L39.14 40.736 19.4 31.108"/>
        <path fill="#97A3D1" d="M2.619.936C1.42.353 1.014.784 1.717 1.894l18.398 29.078 19.676 9.569L20.242 9.645a.844.844 0 0 0-.344-.307L2.618.936"/>
        <path fill="#929DC5" d="M19.895 48.846c0 .98-.743 1.423-1.652.985L1.102 41.565C.496 41.273 0 40.499 0 39.845v-38.4C0 .792.496.496 1.102.79L19.65 9.733c.15.073.245.221.245.383v38.73"/>
    </g>
</svg>
