<svg xmlns="http://www.w3.org/2000/svg" width="40" height="34" viewBox="0 0 40 34">
    <path fill="#1FDB84" fill-rule="nonzero" d="M28 16.2h3.919a7.2 7.2 0 1 1 0-1.6H28a.8.8 0 1 0 0 1.6zM40 2.6v25.6a2.4 2.4 0 0 1-2.4 2.4h-.8v1.6a1.6 1.6 0 0 1-1.6 1.6H32a1.6 1.6 0 0 1-1.6-1.6v-1.6H9.6v1.6A1.6 1.6 0 0 1 8 33.8H4.8a1.6 1.6 0 0 1-1.6-1.6v-1.6h-.8A2.4 2.4 0 0 1 0 28.2V2.6A2.4 2.4 0 0 1 2.4.2h35.2A2.4 2.4 0 0 1 40 2.6zm-32 28H4.8v1.6H8v-1.6zM8 5.8a.8.8 0 1 0-1.6 0v2.4h-.8a.8.8 0 1 0 0 1.6h.8v4.8h-.8a.8.8 0 1 0 0 1.6h.8V21h-.8a.8.8 0 1 0 0 1.6h.8V25A.8.8 0 1 0 8 25V5.8zm25.6 9.6a8.8 8.8 0 1 0-17.6 0 8.8 8.8 0 0 0 17.6 0zm1.6 15.2H32v1.6h3.2v-1.6z"/>
</svg>
