<svg xmlns="http://www.w3.org/2000/svg" width="40" height="32" viewBox="0 0 40 32">
    <path fill="#1FDB84" fill-rule="nonzero" d="M37.6.8H2.4A2.403 2.403 0 0 0 0 3.2v25.6a2.403 2.403 0 0 0 2.4 2.4h4l4.08-5.44a2.4 2.4 0 0 1 1.92-.96h15.2a2.4 2.4 0 0 1 1.92.96l4.08 5.44h4a2.403 2.403 0 0 0 2.4-2.4V3.2A2.403 2.403 0 0 0 37.6.8zM7.2 21.6H4A.8.8 0 1 1 4 20h3.2a.8.8 0 1 1 0 1.6zm0-6.4H4a.8.8 0 1 1 0-1.6h3.2a.8.8 0 1 1 0 1.6zm0-6.4H4a.8.8 0 1 1 0-1.6h3.2a.8.8 0 1 1 0 1.6zM28.8 20a1.6 1.6 0 0 1-1.6 1.6H12.8a1.6 1.6 0 0 1-1.6-1.6V8.8a1.6 1.6 0 0 1 1.6-1.6h14.4a1.6 1.6 0 0 1 1.6 1.6V20zm7.2 1.6h-3.2a.8.8 0 1 1 0-1.6H36a.8.8 0 1 1 0 1.6zm0-6.4h-3.2a.8.8 0 1 1 0-1.6H36a.8.8 0 1 1 0 1.6zm0-6.4h-3.2a.8.8 0 1 1 0-1.6H36a.8.8 0 1 1 0 1.6zm-7.76 17.92l2.16 2.88H9.6l2.16-2.88a.803.803 0 0 1 .64-.32h15.2c.252 0 .489.119.64.32z"/>
</svg>
