<svg id="Etsy" xmlns="http://www.w3.org/2000/svg" width="138" height="41" viewBox="0 0 138 41">
    <g fill="#929DC5" fill-rule="evenodd">
        <path d="M.823 1.343C.803.88.979.506 1.602.506s6.94.198 11.19.198C21.6.704 23.714 0 25.227 0c.845.022 1.023.66 1.023 1.034 0 .375-.4 1.167-.4 2.201 0 1.035.245 2.135.245 3.037 0 .903-.779 1.21-1.201 1.21-.423 0-.69-.153-.713-.924-.044-1.474 1.046-3.609-9.654-3.609-5.45 0-5.584.617-5.584 2.333 0 1.717.044 7.395.044 8.275 0 .88.267 1.145.98 1.145h7.808c1.513 0 3.047-.815 3.225-2.927.067-1.123.378-1.167.935-1.167.556 0 1.067.44.979 1.497-.09 1.056-.312 2.179-.312 3.697 0 1.519.312 3.015.312 4.115 0 1.101-1.469 1.365-1.758.177-.29-1.189-.712-3.192-4.138-3.192h-6.94c-.757 0-1.135.419-1.135 1.651v8.782c0 1.518.467 3.147 3.582 3.147 3.114 0 8.764.33 11.345-1.673 1.112-.903 1.446-2.157 1.824-4.204.178-.946 2.247-.924 2.158 1.255-.067 1.013-1.047 3.186-1.047 4.581 0 1.167.27 2.728-.821 2.728-.922 0-.535-.465-4.583-.465-4.05 0-18.02.089-20.355.089-.868 0-1.046-.243-1.046-.77 0-.529.312-.925 1.046-.925s3.848.044 3.848-3.873V6.867c0-2.113-.467-4.226-3.092-4.49C.779 2.289.845 1.849.823 1.343M29.214 13.551c0-.654.35-.931 1.137-1.193 1.487-.568 3.193-2.228 4.636-6.159.46-1.244 2.034-.917 1.837.35-.196 1.266-.48 3.603-.48 4.935h6.341c.635 0 .744.765.744 1.376 0 .611-.175 1.114-.722 1.114h-6.364v10.962c0 3.953 1.356 4.87 3.171 4.87 1.05 0 1.903-.415 2.69-.96.525-.394 1.706.545 1.116 1.31-.59.764-2.669 3.013-5.643 3.013-2.974 0-5.117-2.205-5.073-5.896.043-3.69.196-9.849.196-10.7 0-.852-1.115-2.053-2.362-2.053-1.027-.022-1.224-.56-1.224-.969M55.221 10.965c2.096 0 3.725.737 4.416.737.691 0 .959-.871 1.717-.871.759 0 .937.871.736 1.609-.2.737-.334 2.48-.245 4.424.022.67-.513 1.073-1.048 1.073-.536 0-.736-.224-.96-1.252-.222-1.028-1.137-3.508-4.75-3.508-2.61 0-3.613 1.743-3.613 2.883s.61 2.229 3.39 3.44c2.922 1.274 8.32 2.637 8.32 7.821-.18 4.872-4.997 6.414-7.83 6.414-2.386 0-4.616-.716-5.597-.716-.982 0-1.36.827-1.985.827s-1.071-.715-.826-1.452c.246-.738.558-1.296.558-2.034 0-.737-.424-2.458-.179-3.888.246-1.43 2.164-1.63 2.142-.245-.022 1.385.602 5.34 5.598 5.34 4.037 0 4.505-2.816 4.505-3.62 0-.983-.2-2.391-5.04-4.312-4.84-1.922-6.714-3.71-6.714-6.771s2.721-5.9 7.405-5.9M64.542 12.238c0-.465.022-.686.547-.686.526 0 3.307.088 4.774.088s4.16-.088 4.708-.088c.394 0 .285.487.285.819 0 .331.043.884-.657.884-.701 0-2.015.243-2.015 1.416 0 1.172.31 1.499.766 2.765.504 1.393 4.14 9.82 4.14 9.82s2.846-5.906 3.7-7.564c.854-1.66 1.38-3.739 1.38-4.667 0-.93-.942-1.549-1.73-1.703-.79-.155-1.183-.111-1.183-1.062 0-.487.087-.752.482-.752.394 0 2.759.154 4.51.154 1.752 0 3.788-.11 4.358-.11.525 0 .372.442.372.819 0 .375-.044.751-.504.818-.46.066-2.496-.022-4.62 4.534s-6.328 13.736-9.372 19.708C72.907 40.57 69.93 44 66.82 44c-1.62.022-2.255-1.394-2.255-2.102 0-.707.394-1.858 2.233-1.858 1.226 0 1.555.598 2.146.598 1.226 0 4.336-3.009 5.212-8.405.131-1.239-1.13-4.273-1.62-5.64-.73-2.035-2.95-7.934-4.555-11.436-.548-1.196-1.993-1.813-2.912-1.924-.439-.088-.526-.243-.526-.995"/>
    </g>
</svg>
