<svg xmlns="http://www.w3.org/2000/svg" width="39" height="26" viewBox="0 0 39 26">
    <path fill="#1FDB84" fill-rule="nonzero" d="M39 12a5.972 5.972 0 0 1-.534 2.4H1.134a5.657 5.657 0 0 1 0-4.8h37.332c.342.754.524 1.572.534 2.4zM2.076 16h35.448c-2.894 3.758-9.738 6.4-17.724 6.4a34.307 34.307 0 0 1-5.897-.503L11.8 24H1.4a.8.8 0 1 1 0-1.6h2.4l2.139-3.209A12.754 12.754 0 0 1 2.076 16zm5.301 3.92L5.723 22.4h5.414l.895-.895a25.213 25.213 0 0 1-4.655-1.586zM27 24h-6.4a.8.8 0 1 0 0 1.6H27a.8.8 0 1 0 0-1.6zM.6.8a.8.8 0 0 1 .8-.8h10.4l2.103 2.103A34.307 34.307 0 0 1 19.8 1.6c7.986 0 14.83 2.642 17.724 6.4H2.076A12.754 12.754 0 0 1 5.94 4.809L3.8 1.6H1.4A.8.8 0 0 1 .6.8zm5.123.8l1.654 2.48a25.213 25.213 0 0 1 4.655-1.586l-.895-.894H5.723z"/>
</svg>
